<?xml version="1.0" encoding="UTF-8" standalone="no"?><!DOCTYPE svg PUBLIC "-//W3C//DTD SVG 1.1//EN" "http://www.w3.org/Graphics/SVG/1.1/DTD/svg11.dtd"><svg width="100%" height="100%" viewBox="0 0 128 128" version="1.1" xmlns="http://www.w3.org/2000/svg" xmlns:xlink="http://www.w3.org/1999/xlink" xml:space="preserve" xmlns:serif="http://www.serif.com/" style="fill-rule:evenodd;clip-rule:evenodd;stroke-linejoin:round;stroke-miterlimit:2;"><path d="M98.18,88.13c15.63,-15.62 18.23,-38.36 5.8,-50.78c-12.43,-12.42 -35.17,-9.82 -50.8,5.8c-15.63,15.62 -11.11,45.48 -5.8,50.78c4.29,4.29 35.17,9.82 50.8,-5.8Z" style="fill:#f89939;fill-rule:nonzero;"/><path d="M34.04,65.56c-9.07,-9.06 -22.27,-10.57 -29.48,-3.37c-7.21,7.21 -5.7,20.4 3.37,29.46c9.07,9.07 26.4,6.44 29.48,3.37c2.49,-2.49 5.71,-20.4 -3.37,-29.46Z" style="fill:#3499cd;fill-rule:nonzero;"/><path d="M123.82,85.68c-0.58,0 -0.87,-0.35 -0.87,-1.06c-0,-0.53 0.35,-1.69 1.04,-3.46c1.01,-2.59 1.52,-4.45 1.52,-5.58c-0,-0.68 -0.2,-1.25 -0.6,-1.7c-0.4,-0.45 -0.9,-0.68 -1.5,-0.68c-0.88,0 -1.89,0.41 -3.03,1.24c-1.14,0.83 -2.67,2.32 -4.6,4.48c0.28,-1.4 0.88,-3.32 1.78,-5.76l-4.31,0.83c-0.98,2.12 -1.69,4.03 -2.13,5.73c-0.22,0.83 -0.38,1.69 -0.49,2.56c-1.35,1.31 -2.23,2.1 -2.61,2.39c-0.39,0.29 -0.8,0.43 -1.22,0.43c-0.39,0 -0.7,-0.15 -0.93,-0.44c-0.23,-0.29 -0.34,-0.69 -0.34,-1.18c-0,-0.53 0.1,-1.14 0.3,-1.83c0.2,-0.69 0.64,-1.99 1.33,-3.9l1.64,-4.52l-1.61,0.07c-1.46,2.78 -3.17,4.28 -5.13,4.49c0.53,-1.38 0.8,-2.44 0.8,-3.18c-0,-0.94 -0.46,-1.41 -1.38,-1.41c-1.09,0 -1.94,0.51 -2.55,1.54c-0.62,1.03 -0.93,2 -0.93,2.91c-0,0.91 0.51,1.55 1.52,2c-0.66,0.97 -1.4,1.88 -2.2,2.74c-0.95,0.94 -1.69,1.66 -2.23,2.13c-0.55,0.49 -1.06,0.73 -1.52,0.73c-0.72,0 -1.08,-0.51 -1.08,-1.52c-0,-1.01 0.4,-2.75 1.2,-5.35l1.56,-5.18l-0.99,0l-3.61,2c-0.59,-1.35 -1.62,-2.03 -3.09,-2.03c-1.17,0 -2.51,0.5 -4.03,1.49c-1.52,0.99 -2.77,2.28 -3.74,3.89c-0.75,1.24 -1.21,2.54 -1.38,3.88c-1.36,1.36 -2.38,2.24 -3.06,2.65c-0.71,0.42 -1.45,0.63 -2.23,0.63c-1.99,0 -3.22,-1.15 -3.69,-3.45c5.19,-1.52 7.78,-3.5 7.78,-5.94c-0,-0.92 -0.33,-1.66 -0.99,-2.23c-0.66,-0.57 -1.54,-0.85 -2.63,-0.85c-2.11,0 -4.03,1.01 -5.76,3.03c-1.57,1.83 -2.42,3.86 -2.57,6.09c-1.43,1.41 -2.51,2.34 -3.21,2.79c-0.72,0.46 -1.4,0.69 -2.03,0.69c-0.63,0 -1.13,-0.3 -1.5,-0.9c-0.38,-0.6 -0.57,-1.41 -0.57,-2.44c-0,-0.46 0.05,-1.3 0.14,-2.53c2.36,-2.56 4.09,-4.96 5.2,-7.21c1.11,-2.25 1.66,-4.58 1.66,-6.98c-0,-0.85 -0.11,-1.52 -0.33,-2.02c-0.22,-0.5 -0.5,-0.75 -0.84,-0.75c-0.07,0 -0.18,0.02 -0.32,0.07l-4.49,1.66c-1.53,2.92 -2.84,6.11 -3.91,9.58c-1.07,3.46 -1.61,6.43 -1.61,8.9c-0,1.65 0.38,2.96 1.16,3.94c0.77,0.98 1.79,1.47 3.05,1.47c1.1,0 2.25,-0.35 3.46,-1.05c1.21,-0.7 2.61,-1.79 4.22,-3.26c1.61,-1.47 -0,-0.02 -0,-0.02c0.19,1.11 0.65,2.04 1.37,2.8c0.99,1.02 2.28,1.54 3.88,1.54c1.44,0 2.75,-0.35 3.94,-1.05c1.15,-0.67 2.44,-1.72 3.88,-3.11c0.12,1.04 0.46,1.94 1.03,2.71c0.73,0.97 1.61,1.46 2.64,1.46c1.03,0 2.09,-0.4 3.09,-1.2c1,-0.8 2.08,-2.05 3.26,-3.73c-0.11,3.29 0.77,4.93 2.63,4.93c0.74,0 1.52,-0.27 2.33,-0.81c0.81,-0.54 2.16,-1.71 4.05,-3.5c1.64,-1.62 2.84,-3.14 3.61,-4.56c1.04,-0.18 1.99,-0.49 2.86,-0.94c-1.78,2.79 -2.67,5.02 -2.67,6.68c-0,0.9 0.25,1.65 0.74,2.25c0.49,0.6 1.1,0.91 1.82,0.91c1.57,0 3.8,-1.41 6.68,-4.2c-0,0.22 -0.02,0.43 -0.02,0.65c-0,0.78 0.07,1.96 0.19,3.55l3.91,-0.92c-0,-1.06 0.02,-1.9 0.05,-2.53c0.06,-0.84 0.18,-1.76 0.35,-2.76c0.11,-0.59 0.38,-1.15 0.81,-1.68l0.99,-1.15c0.36,-0.42 0.71,-0.8 1.02,-1.13c0.37,-0.39 0.7,-0.72 0.99,-0.99c0.33,-0.29 0.62,-0.53 0.87,-0.69c0.27,-0.16 0.49,-0.25 0.65,-0.25c0.29,0 0.44,0.19 0.44,0.57c-0,0.38 -0.28,1.26 -0.83,2.65c-1.04,2.59 -1.56,4.52 -1.56,5.78c-0,0.93 0.24,1.67 0.73,2.23c0.48,0.55 1.12,0.83 1.91,0.83c1.94,0 4.28,-1.44 7,-4.31l-0,-2.03c-1.93,2.27 -3.32,3.41 -4.18,3.41l0.02,-0.03Zm-65.26,-8.29c0.8,-3.91 1.62,-6.94 2.45,-9.11c0.83,-2.17 1.47,-3.26 1.9,-3.26c0.2,0 0.37,0.13 0.5,0.4c0.13,0.26 0.19,0.62 0.19,1.05c-0,1.49 -0.46,3.26 -1.4,5.33c-0.93,2.06 -2.15,3.93 -3.64,5.59Zm11.79,-0.98c0.71,-1.19 1.45,-1.78 2.23,-1.78c0.82,0 1.24,0.57 1.24,1.7c-0,2.29 -1.51,3.85 -4.53,4.7c-0,-1.9 0.35,-3.44 1.06,-4.62Zm17.48,5.85c-1.04,2.01 -2.16,3.01 -3.33,3.01c-0.48,0 -0.88,-0.2 -1.19,-0.59c-0.31,-0.39 -0.47,-0.91 -0.47,-1.55c-0,-1.68 0.53,-3.53 1.58,-5.53c1.05,-2 2.17,-3 3.35,-3c0.49,0 0.89,0.18 1.18,0.56c0.29,0.37 0.44,0.89 0.44,1.55c-0,1.7 -0.52,3.55 -1.56,5.56l-0,-0.01Z" style="fill:#fff;fill-rule:nonzero;"/><path d="M75.46,64.88c0.15,0.21 0.22,0.48 0.22,0.8c-0,0.32 -0.09,0.61 -0.27,0.88c-0.18,0.27 -0.44,0.49 -0.79,0.64c-0.34,0.15 -0.73,0.23 -1.16,0.23c-0.72,0 -1.26,-0.15 -1.64,-0.45c-0.38,-0.3 -0.62,-0.74 -0.72,-1.33l0.93,-0.15c0.05,0.37 0.2,0.66 0.43,0.85c0.24,0.2 0.57,0.3 1,0.3c0.43,0 0.75,-0.09 0.96,-0.26c0.21,-0.17 0.31,-0.38 0.31,-0.62c-0,-0.21 -0.09,-0.38 -0.28,-0.5c-0.13,-0.08 -0.45,-0.19 -0.96,-0.32c-0.69,-0.17 -1.16,-0.32 -1.43,-0.45c-0.27,-0.13 -0.47,-0.3 -0.6,-0.53c-0.13,-0.23 -0.21,-0.47 -0.21,-0.74c-0,-0.25 0.06,-0.47 0.17,-0.68c0.11,-0.21 0.27,-0.38 0.46,-0.52c0.15,-0.11 0.34,-0.2 0.59,-0.27c0.25,-0.07 0.52,-0.11 0.81,-0.11c0.43,0 0.81,0.06 1.14,0.19c0.33,0.12 0.57,0.29 0.73,0.51c0.16,0.21 0.26,0.5 0.32,0.86l-0.92,0.12c-0.04,-0.28 -0.16,-0.51 -0.36,-0.67c-0.2,-0.16 -0.48,-0.24 -0.85,-0.24c-0.43,0 -0.74,0.07 -0.92,0.21c-0.18,0.14 -0.28,0.31 -0.28,0.5c-0,0.12 0.04,0.23 0.11,0.33c0.08,0.1 0.2,0.18 0.36,0.25c0.09,0.03 0.37,0.11 0.83,0.24c0.66,0.18 1.12,0.32 1.39,0.43c0.26,0.11 0.47,0.28 0.62,0.49l0.01,0.01Zm4.47,1.44c-0.25,0.23 -0.55,0.34 -0.92,0.34c-0.46,0 -0.83,-0.17 -1.11,-0.5c-0.28,-0.33 -0.43,-0.88 -0.43,-1.62c-0,-0.74 0.15,-1.27 0.44,-1.6c0.29,-0.33 0.68,-0.51 1.15,-0.51c0.31,0 0.58,0.09 0.8,0.28c0.22,0.19 0.37,0.47 0.46,0.84l0.91,-0.14c-0.11,-0.56 -0.35,-0.99 -0.73,-1.29c-0.38,-0.3 -0.87,-0.45 -1.47,-0.45c-0.48,0 -0.91,0.11 -1.32,0.34c-0.4,0.22 -0.71,0.56 -0.9,1.01c-0.2,0.45 -0.3,0.97 -0.3,1.57c-0,0.92 0.23,1.63 0.69,2.12c0.46,0.49 1.07,0.74 1.82,0.74c0.6,0 1.11,-0.18 1.53,-0.54c0.41,-0.36 0.67,-0.86 0.77,-1.49l-0.92,-0.12c-0.07,0.47 -0.22,0.81 -0.47,1.04l-0,-0.02Zm2.19,0.98l0.94,0l-0,-5.52l-0.94,0l-0,5.52Zm-0,-6.55l0.94,0l-0,-1.08l-0.94,0l-0,1.08Zm6.73,1.02l-1.21,0l-2.22,2.25l-0,-4.35l-0.94,0l-0,7.62l0.94,0l-0,-2.19l0.66,-0.63l1.83,2.82l1.16,0l-2.33,-3.47l2.11,-2.05Zm0.96,-1.02l0.94,0l-0,-1.08l-0.94,0l-0,1.08Zm-0,6.55l0.94,0l-0,-5.52l-0.94,0l-0,5.52Zm4.41,-0.84c-0.17,0.02 -0.31,0.04 -0.41,0.04c-0.14,0 -0.25,-0.02 -0.32,-0.07c-0.07,-0.05 -0.13,-0.11 -0.16,-0.18c-0.03,-0.08 -0.05,-0.25 -0.05,-0.51l-0,-3.23l0.94,0l-0,-0.73l-0.94,0l-0,-1.93l-0.93,0.56l-0,1.37l-0.69,0l-0,0.73l0.69,0l-0,3.18c-0,0.56 0.04,0.93 0.11,1.1c0.08,0.18 0.21,0.32 0.39,0.42c0.19,0.11 0.45,0.16 0.79,0.16c0.21,0 0.44,-0.03 0.71,-0.08l-0.14,-0.83l0.01,0Z" style="fill:#fff;fill-rule:nonzero;"/></svg>