<?xml version="1.0" encoding="UTF-8" standalone="no"?><!DOCTYPE svg PUBLIC "-//W3C//DTD SVG 1.1//EN" "http://www.w3.org/Graphics/SVG/1.1/DTD/svg11.dtd"><svg width="100%" height="100%" viewBox="0 0 976 888" version="1.1" xmlns="http://www.w3.org/2000/svg" xmlns:xlink="http://www.w3.org/1999/xlink" xml:space="preserve" xmlns:serif="http://www.serif.com/" style="fill-rule:evenodd;clip-rule:evenodd;stroke-linecap:square;stroke-linejoin:round;"><g id="Image-1" serif:id="Image 1"><g id="g829"><path id="path948" d="M295.59,393.485c-291.388,-153.292 -76.611,-447.412 136.192,-371.345c173.23,61.922 242.18,293.977 125.072,480.724c-125.352,181.316 -365.779,209.57 -491.055,74.851c-153.894,-165.492 31.556,-478.932 287.424,-271.72" style="fill:none;fill-rule:nonzero;stroke:#fff;stroke-width:19.56px;"/><path id="path948-7" d="M679.822,393.485c291.388,-153.292 76.611,-447.412 -136.192,-371.345c-173.23,61.922 -242.181,293.977 -125.072,480.724c125.352,181.316 365.779,209.57 491.055,74.851c153.894,-165.492 -31.556,-478.932 -287.424,-271.72" style="fill:none;fill-rule:nonzero;stroke:#fff;stroke-width:19.56px;"/><path id="path948-7-0" d="M434.199,625.218c-33.665,327.524 330.175,311.499 384.642,92.172c44.339,-178.542 -110.734,-364.433 -331.085,-370.299c-220.392,4.007 -377.028,188.584 -334.196,367.493c52.616,219.779 416.308,238.872 385.405,-88.924" style="fill:none;fill-rule:nonzero;stroke:#fff;stroke-width:19.56px;"/></g></g></svg>