<?xml version="1.0" encoding="UTF-8" standalone="no"?><!DOCTYPE svg PUBLIC "-//W3C//DTD SVG 1.1//EN" "http://www.w3.org/Graphics/SVG/1.1/DTD/svg11.dtd"><svg width="100%" height="100%" viewBox="0 0 448 512" version="1.1" xmlns="http://www.w3.org/2000/svg" xmlns:xlink="http://www.w3.org/1999/xlink" xml:space="preserve" xmlns:serif="http://www.serif.com/" style="fill-rule:evenodd;clip-rule:evenodd;stroke-linejoin:round;stroke-miterlimit:2;"><path d="M448,205.8c-14.8,9.8 -31.8,17.7 -49.5,24c-47,16.8 -108.7,26.2 -174.5,26.2c-65.8,0 -127.6,-9.5 -174.5,-26.2c-17.6,-6.3 -34.7,-14.2 -49.5,-24l0,82.2c0,44.2 100.3,80 224,80c123.7,0 224,-35.8 224,-80l0,-82.2Zm0,-77.8l0,-48c0,-44.2 -100.3,-80 -224,-80c-123.7,0 -224,35.8 -224,80l0,48c0,44.2 100.3,80 224,80c123.7,0 224,-35.8 224,-80Zm-49.5,261.8c-46.9,16.7 -108.6,26.2 -174.5,26.2c-65.9,0 -127.6,-9.5 -174.5,-26.2c-17.6,-6.3 -34.7,-14.2 -49.5,-24l0,66.2c0,44.2 100.3,80 224,80c123.7,0 224,-35.8 224,-80l0,-66.2c-14.8,9.8 -31.8,17.7 -49.5,24Z" style="fill:#fff;fill-rule:nonzero;"/></svg>